<svg width="40" height="40" viewBox="0 0 40 40" fill="none" xmlns="http://www.w3.org/2000/svg">
<g clip-path="url(#clip0_3716_11)">
<path d="M19.9649 9.70844C14.3052 9.70844 9.72321 14.2954 9.72321 19.9502C9.72321 25.6099 14.3102 30.1919 19.9649 30.1919C25.6246 30.1919 30.2066 25.6049 30.2066 19.9502C30.2066 14.2904 25.6196 9.70844 19.9649 9.70844ZM19.9649 26.5978C16.291 26.5978 13.3173 23.6224 13.3173 19.9502C13.3173 16.2779 16.2926 13.3025 19.9649 13.3025C23.6371 13.3025 26.6125 16.2779 26.6125 19.9502C26.6142 23.6224 23.6388 26.5978 19.9649 26.5978Z" fill="#445964"/>
<path d="M28.1875 0.12538C24.5153 -0.0459253 15.4195 -0.0376096 11.7439 0.12538C8.51406 0.276727 5.66508 1.05675 3.36827 3.35356C-0.470295 7.19212 0.0203358 12.3645 0.0203358 19.9502C0.0203358 27.7138 -0.412084 32.7664 3.36827 36.5468C7.22179 40.3987 12.469 39.8947 19.9649 39.8947C27.6553 39.8947 30.3097 39.8997 33.029 38.8469C36.7261 37.4116 39.5169 34.1069 39.7897 28.1711C39.9626 24.4972 39.9527 15.4031 39.7897 11.7275C39.4604 4.72068 35.7 0.471316 28.1875 0.12538ZM34.0002 34.0072C31.4839 36.5235 27.9929 36.299 19.9167 36.299C11.6009 36.299 8.26625 36.4221 5.83306 33.9822C3.03064 31.1931 3.53791 26.7142 3.53791 19.9236C3.53791 10.7346 2.5949 4.11695 11.8171 3.64461C13.9359 3.56977 14.5596 3.54482 19.8934 3.54482L19.9682 3.59472C28.8312 3.59472 35.7848 2.66668 36.2023 11.8872C36.2971 13.9911 36.3187 14.6231 36.3187 19.9485C36.317 28.1678 36.4734 31.5224 34.0002 34.0072Z" fill="#445964"/>
<path d="M30.6124 11.6976C31.9342 11.6976 33.0057 10.6261 33.0057 9.30435C33.0057 7.98258 31.9342 6.91107 30.6124 6.91107C29.2906 6.91107 28.2191 7.98258 28.2191 9.30435C28.2191 10.6261 29.2906 11.6976 30.6124 11.6976Z" fill="#445964"/>
</g>
<defs>
<clipPath id="clip0_3716_11">
<rect width="40" height="40" fill="white"/>
</clipPath>
</defs>
</svg>
