<svg width="40" height="40" viewBox="0 0 40 40" fill="none" xmlns="http://www.w3.org/2000/svg">
<path d="M39.9057 39.9157V39.914H39.9157V25.2749C39.9157 18.1134 38.374 12.5967 30.0016 12.5967C25.9768 12.5967 23.2758 14.8054 22.1732 16.8993H22.0567V13.2653H14.1185V39.914H22.3844V26.7186C22.3844 23.2442 23.043 19.8847 27.3456 19.8847C31.585 19.8847 31.6482 23.8496 31.6482 26.9414V39.9157H39.9057Z" fill="white"/>
<path d="M0.65861 13.2669H8.93447V39.9157H0.65861V13.2669Z" fill="white"/>
<path d="M4.79321 0C2.14713 0 0 2.14713 0 4.79321C0 7.43929 2.14713 9.63133 4.79321 9.63133C7.43929 9.63133 9.58642 7.43929 9.58642 4.79321C9.58476 2.14713 7.43763 0 4.79321 0Z" fill="white"/>
</svg>
